<svg xmlns="http://www.w3.org/2000/svg" viewBox="0 0 39 39"><path d="M1 1h7v7h-7zM11 1h2v1h-2zM15 1h1v1h1v1h-1v1h3v3h-1v1h-1v-1h-1v1h-1v-3h-1v-2h-1v-1h2zM17 1h2v2h-1v-1h-1zM20 1h2v1h1v1h2v-1h1v-1h2v1h-1v1h-1v1h2v1h-3v-1h-2v2h-1v-1h-1v-1h1v-1h-1v-1h-1zM23 1h1v1h-1zM29 1h1v2h-1zM31 1h7v7h-7zM2 2v5h5v-5zM9 2h2v1h-1v1h2v1h2v1h-3v-1h-2zM32 2v5h5v-5zM3 3h3v3h-3zM12 3h1v1h-1zM19 3h1v1h-1zM33 3h3v3h-3zM16 5v1h2v-1zM20 5h1v1h-1zM24 5h1v1h-1zM28 5h2v1h-2zM10 6h1v1h-1zM21 6h1v2h-1zM26 6h2v2h1v-1h1v2h2v1h-1v1h-1v-1h-1v-1h-2v-2h-1zM9 7h1v1h1v-1h1v2h-2v2h1v-1h1v-1h2v-1h1v1h3v3h-2v-1h1v-1h-4v2h-3v1h1v2h-1v-1h-1v-1h-1v-1h-1v-1h2zM13 7h1v1h-1zM19 7h1v1h1v1h-3v-1h1zM23 7h1v2h1v2h-1v-1h-1zM25 7h1v2h-1zM1 9h1v1h-1zM7 9h1v1h-1zM26 9h1v1h-1zM34 9h3v1h-1v1h-1v3h-1v-2h-2v-2h2zM2 10h5v1h-5zM19 10h1v1h1v1h1v1h-3zM27 10h2v2h-3v-1h1zM22 11h1v1h-1zM36 11h2v3h-1v1h1v3h-1v-1h-1v1h1v1h-1v1h-1v-4h1v-1h-1v-1h1v-1h1v-1h-1zM2 12h1v1h-1zM13 12h2v1h3v3h-1v1h-1v-1h-1v2h1v1h-1v1h-1v-4h-1v1h-1v1h-1v1h-1v-1h-1v-1h1v-1h1v-1h1v-2h1v2h3v-1h-2v-1h-1zM23 12h1v1h-1zM29 12h3v2h-1v1h1v-1h1v2h-1v1h1v2h1v1h-2v-2h-1v1h-1v1h1v1h1v1h-2v-1h-2v-1h-5v-1h1v-1h1v1h2v-1h2v-2h-2v-2h1v1h1v-1h-1v-1h1zM1 13h1v1h-1zM7 13h1v1h-1zM24 13h2v1h-1v1h-1zM5 14h2v1h3v1h-3v1h-1v-1h-2v1h-2v1h1v1h-2v-4h4zM19 14h3v1h-2v1h-1zM22 15h2v1h1v-1h1v2h1v1h-2v-1h-1v1h-1v-2h-1zM20 16h2v2h-1v-1h-1zM30 16v1h1v-1zM33 16h1v1h-1zM4 17h1v1h1v2h1v1h2v2h1v1h-1v1h1v1h-3v-1h1v-1h-1v-1h1v-1h-4v-1h-1v-1h2v-1h-1zM7 17h1v1h-1zM19 17h1v1h-1zM12 18h1v1h-1zM17 18h2v1h-1v2h-2v1h-1v-2h2zM22 18h1v1h-1zM7 19h1v1h-1zM9 19h1v1h1v1h-2zM20 19h1v1h-1zM37 19h1v3h-4v1h-2v-1h1v-1h1v-1h1v1h1v-1h1zM19 20h1v2h-1v2h1v1h-1v1h1v1h-2v-2h-1v-1h-1v-2h1v1h1v-2h1zM1 21h2v1h-1v1h1v2h-1v-1h-1zM12 21h2v1h-2zM23 21h1v1h1v1h-2v1h-1v-2h1zM26 21h2v2h-1v-1h-1zM3 22h1v1h-1zM10 22h2v1h-2zM14 22h1v1h-1zM20 22h1v1h-1zM4 23h2v1h-2zM12 23h1v2h-1v1h1v1h1v2h-1v1h-1v-1h-1v-1h-1v-1h1v-2h-1v-1h2zM26 23h1v1h-1zM28 23h4v3h-1v-1h-1v3h-2v-1h-1v-2h1v1h1v-2h-1zM34 23h4v1h-4zM15 24h1v1h-1zM21 24h1v2h1v1h-2v-1h-1v-1h1zM23 24h1v1h-1zM25 24h1v2h-1v1h-1v-2h1zM1 25h1v1h1v1h-1v3h-1zM3 25h3v3h-1v-1h-1v-1h-1zM14 25h1v1h-1zM34 25h1v1h-1zM36 25h2v1h-1v1h1v2h-1v-1h-1v2h1v1h-3v2h2v2h-2v-1h-1v2h1v1h-2v1h-3v-2h1v-1h-2v2h-1v-2h-1v-1h1v-1h2v-2h-1v1h-2v-1h1v-1h1v-1h2v-1h1v1h2v-2h1v2h1v-2h1zM15 26h1v1h-1zM3 27h1v2h1v1h-2zM7 27h2v1h-2zM16 27h2v2h-1v-1h-1zM20 27h1v3h2v-3h1v3h1v2h1v2h-1v-1h-1v1h1v1h-1v1h1v2h-1v-1h-1v-1h-1v-1h1v-3h1v-1h-2v1h-4v-1h1v-1h1zM31 27h1v1h-1zM6 28h1v1h2v-1h1v1h1v1h1v1h-3v-1h-3zM15 28h1v1h-1zM14 29h1v1h-1zM16 29h1v1h1v1h-1v1h-2v-2h1zM25 29h2v1h-2zM13 30h1v1h-1zM30 30v3h3v-3zM1 31h7v7h-7zM31 31h1v1h-1zM37 31h1v1h-1zM2 32v5h5v-5zM10 32h5v1h-3v4h-1v-2h-1zM17 32h1v1h-1zM36 32h1v1h-1zM3 33h3v3h-3zM15 33h2v1h-2zM19 33h1v1h-1zM37 33h1v5h-1v-2h-1v-1h1zM14 34h1v3h-1v-1h-1v-1h1zM21 34h1v1h-1zM25 35h1v1h-1zM31 35v1h1v-1zM16 36h2v2h-1v-1h-1zM19 36h3v1h1v1h-2v-1h-2zM9 37h2v1h-2zM13 37h1v1h-1z"/></svg>